<svg width="65" height="65" viewBox="0 0 65 65" fill="none" xmlns="http://www.w3.org/2000/svg">
<path d="M36.7869 33.4668H29.0175V43.1253H36.8483C40.3487 43.1253 44.101 41.8756 44.101 38.74C44.0978 35.6045 41.9536 33.4668 36.7869 33.4668V33.4668ZM41.5112 25.2808C41.5112 22.255 38.6631 20.9246 35.9053 20.9246H29.0175V29.821H35.7342C38.5113 29.8404 41.5112 28.313 41.5112 25.2808Z" fill="#015F43"/>
<path d="M32.04 0.5C14.3441 0.5 0 14.8441 0 32.54C0 50.236 14.3441 64.58 32.04 64.58C49.736 64.58 64.08 50.236 64.08 32.54C64.08 14.8441 49.7327 0.5 32.04 0.5ZM37.1776 48.3759H23.318V40.1673H14.8123V36.0017H23.318V30.4798H14.8123V26.3141H23.318V16.5491H38.2885C43.6296 16.5491 47.0073 21.0086 47.0073 24.5058C47.0073 28.003 43.8007 29.9825 43.8007 29.9825C47.2269 31.3032 49.4453 34.639 49.342 38.3073C49.342 44.8012 43.7297 48.3759 37.1776 48.3759Z" fill="#015F43"/>
</svg>
